<?xml version="1.0" encoding="UTF-8"?>
<svg width="74px" height="74px" viewBox="0 0 74 74" version="1.1" xmlns="http://www.w3.org/2000/svg" xmlns:xlink="http://www.w3.org/1999/xlink">
    <!-- Generator: Sketch 55.1 (78136) - https://sketchapp.com -->
    <title>lesson</title>
    <desc>Created with Sketch.</desc>
    <defs>
        <path d="M29.00625,27.745 L39.0075,27.745 L39.0075,25.245 L29.00625,25.245 L29.00625,27.745 Z M29.00625,22.7425 L39.0075,22.7425 L39.0075,20.2425 L29.00625,20.2425 L29.00625,22.7425 Z M29.00625,17.73875 L39.0075,17.73875 L39.0075,15.23875 L29.00625,15.23875 L29.00625,17.73875 Z M29.00625,12.73625 L39.0075,12.73625 L39.0075,10.23625 L29.00625,10.23625 L29.00625,12.73625 Z M8.995,27.745 L18.99625,27.745 L18.99625,25.245 L8.995,25.245 L8.995,27.745 Z M8.995,22.7425 L18.99625,22.7425 L18.99625,20.2425 L8.995,20.2425 L8.995,22.7425 Z M8.995,17.73875 L18.99625,17.73875 L18.99625,15.23875 L8.995,15.23875 L8.995,17.73875 Z M8.995,12.73625 L18.99625,12.73625 L18.99625,10.23625 L8.995,10.23625 L8.995,12.73625 Z M41.5,41.5 L25.25,41.5 L25.25,40.2625 C25.25,36.8125 28.05,34.0125 31.5,34.0125 L41.5,34.0125 L41.5,41.5 Z M25.25,12.75 C25.25,9.3 28.05,6.5 31.5,6.5 L41.5,6.5 L41.5,31.5125 L31.5,31.5125 C29.05,31.5125 26.825,32.525 25.25,34.15 L25.25,12.75 Z M22.75,34.1625 C21.1625,32.525 18.95,31.5125 16.5,31.5125 L6.5,31.5125 L6.5,6.5 L16.5,6.5 C19.9375,6.5 22.75,9.3 22.75,12.75 L22.75,34.1625 Z M22.75,41.5 L6.5,41.5 L6.5,34.0125 L16.5,34.0125 C19.9375,34.0125 22.75,36.8125 22.75,40.2625 L22.75,41.5 Z M31.5,4 C28.3125,4 25.525,5.7 24,8.2375 C22.4625,5.7 19.675,4 16.5,4 L4,4 L4,44 L44,44 L44,4 L31.5,4 Z" id="path-1"></path>
    </defs>
    <g id="Admin-/-Filled-Opened-Components" stroke="none" stroke-width="1" fill="none" fill-rule="evenodd">
        <g id="1--Dashboard" transform="translate(-621.000000, -146.000000)">
            <g id="widgets" transform="translate(220.000000, 128.000000)">
                <g id="widgets-/-counter-/-with-icon" transform="translate(386.000000, 0.000000)">
                    <g id="lesson" transform="translate(16.000000, 19.000000)">
                        <g id="icon-/-lesson" transform="translate(13.000000, 13.000000)">
                            <g id="icon-/-academic-staff">
                                <rect id="icon-wrapper" x="0" y="0" width="48" height="48"></rect>
                                <mask id="mask-2" fill="white">
                                    <use xlink:href="#path-1"></use>
                                </mask>
                                <use id="lesson" fill="#475059" xlink:href="#path-1"></use>
                                <g id="colors-/-free-green" mask="url(#mask-2)" fill="#0EC59B">
                                    <g transform="translate(-40.000000, -38.000000)" id="colors-/-cerulean-blue">
                                        <rect x="0" y="0" width="128" height="128"></rect>
                                    </g>
                                </g>
                            </g>
                        </g>
                        <rect id="Rectangle" stroke="#0EC59B" stroke-width="2" x="0" y="0" width="72" height="72" rx="36"></rect>
                    </g>
                </g>
            </g>
        </g>
    </g>
</svg>