<?xml version="1.0" encoding="UTF-8"?>
<svg width="74px" height="74px" viewBox="0 0 74 74" version="1.1" xmlns="http://www.w3.org/2000/svg" xmlns:xlink="http://www.w3.org/1999/xlink">
    <!-- Generator: Sketch 55.1 (78136) - https://sketchapp.com -->
    <title>lecturer</title>
    <desc>Created with Sketch.</desc>
    <defs>
        <path d="M25.2,41.4960093 C25.2,38.053022 27.888,35.2360324 31.2,35.2360324 L39.6,35.2360324 L39.6,32.7320417 L31.2,32.7320417 C28.152,32.7320417 25.476,34.4472753 24,36.9888259 C22.536,34.4472753 19.848,32.7320417 16.8,32.7320417 L8.4,32.7320417 L8.4,35.2360324 L16.8,35.2360324 C20.112,35.2360324 22.8,38.053022 22.8,41.4960093 L6,41.4960093 L6,44 L42,44 L42,41.4960093 L25.2,41.4960093 Z M38.4,30.2318069 L36,30.2318069 L36,26.7850637 C35.712,25.2075495 35.2488,24.4413284 34.362,24.0719897 L26.016,20.5926946 L26.016,16.8880403 L28.4076,14.2300541 L28.4076,9.50627563 C28.4076,9.18701681 28.2756,8.88403393 28.0464,8.67369871 L25.9752,6.77942972 C25.7808,6.60164637 25.5324,6.50399074 25.2744,6.50399074 L22.8672,6.50399074 C22.6092,6.50399074 22.3608,6.60164637 22.1664,6.77942972 L20.0964,8.67244671 C19.866,8.88278193 19.734,9.18701681 19.734,9.50627563 L19.734,14.2300541 L22.1256,16.8880403 L22.1256,20.5926946 L13.7796,24.0719897 C13.1844,24.3211368 12.3576,24.8720148 12,26.7863157 L12,30.2318069 L9.6,30.2318069 L9.6192,26.4482769 C10.032,24.0619738 11.1324,22.4794516 12.8892,21.7470343 L19.7256,18.8962409 L19.7256,17.8783687 L17.334,15.2203825 L17.334,9.50627563 C17.334,8.46461548 17.7648,7.47428715 18.516,6.78819368 L20.5848,4.89642868 C21.216,4.31800682 22.0272,4 22.8672,4 L25.2744,4 C26.1156,4 26.9256,4.31800682 27.5568,4.89642868 L29.6268,6.78944568 C30.3768,7.47303515 30.8076,8.46336349 30.8076,9.50627563 L30.8076,15.2203825 L28.416,17.8783687 L28.416,18.8962409 L35.2524,21.7470343 C37.4892,22.6797709 38.1084,24.8770228 38.3808,26.4482769 L38.4,26.6711321 L38.4,30.2318069 Z" id="path-1"></path>
    </defs>
    <g id="Admin-/-Filled-Opened-Components" stroke="none" stroke-width="1" fill="none" fill-rule="evenodd">
        <g id="1--Dashboard" transform="translate(-234.000000, -289.000000)">
            <g id="widgets" transform="translate(220.000000, 128.000000)">
                <g id="widgets-/-counter-/-with-icon" transform="translate(0.000000, 142.000000)">
                    <g id="lecturer" transform="translate(15.000000, 20.000000)">
                        <g id="icon-/-academic-staff" transform="translate(13.000000, 10.000000)">
                            <g>
                                <rect id="icon-wrapper" x="0" y="0" width="48" height="48"></rect>
                                <mask id="mask-2" fill="white">
                                    <use xlink:href="#path-1"></use>
                                </mask>
                                <use id="academic-staff" fill="#475059" xlink:href="#path-1"></use>
                                <g id="colors-/-free-green" mask="url(#mask-2)" fill="#0EC59B">
                                    <g transform="translate(-40.000000, -38.000000)" id="colors-/-cerulean-blue">
                                        <rect x="0" y="0" width="128" height="128"></rect>
                                    </g>
                                </g>
                            </g>
                        </g>
                        <rect id="Rectangle" stroke="#0EC59B" stroke-width="2" x="0" y="0" width="72" height="72" rx="36"></rect>
                    </g>
                </g>
            </g>
        </g>
    </g>
</svg>