<?xml version="1.0" encoding="UTF-8"?>
<svg width="74px" height="74px" viewBox="0 0 74 74" version="1.1" xmlns="http://www.w3.org/2000/svg" xmlns:xlink="http://www.w3.org/1999/xlink">
    <!-- Generator: Sketch 55.1 (78136) - https://sketchapp.com -->
    <title>student</title>
    <desc>Created with Sketch.</desc>
    <defs>
        <path d="M37.767209,39.109928 C36.252816,39.109928 35.0137672,37.869715 35.0137672,36.3538992 C35.0137672,34.8380833 36.252816,33.5978703 37.767209,33.5978703 C39.281602,33.5978703 40.5206508,34.8380833 40.5206508,36.3538992 C40.5206508,37.869715 39.281602,39.109928 37.767209,39.109928 L37.767209,39.109928 Z M24,39.109928 C22.485607,39.109928 21.2465582,37.869715 21.2465582,36.3538992 C21.2465582,34.8380833 22.485607,33.5978703 24,33.5978703 L33.0175219,33.5978703 C32.5356696,34.4108988 32.2603254,35.3479486 32.2603254,36.3538992 C32.2603254,37.3598497 32.5356696,38.2968995 33.0175219,39.109928 L24,39.109928 Z M19.2365457,39.109928 L10.232791,39.109928 C8.718398,39.109928 7.47934919,37.869715 7.47934919,36.3538992 C7.47934919,34.8380833 8.718398,33.5978703 10.232791,33.5978703 L19.2503129,33.5978703 C18.7684606,34.4108988 18.4931164,35.3479486 18.4931164,36.3538992 C18.4931164,37.3598497 18.7684606,38.2968995 19.2365457,39.109928 L19.2365457,39.109928 Z M37.767209,30.8418415 L10.232791,30.8418415 C7.20400501,30.8418415 4.72590738,33.3084873 4.72590738,36.3538992 C4.72590738,39.399311 7.20400501,41.8659568 10.232791,41.8659568 L22.6232791,41.8659568 L22.6232791,46 L25.3767209,46 L25.3767209,41.8659568 L37.767209,41.8659568 C40.8097622,41.8659568 43.2740926,39.399311 43.2740926,36.3538992 C43.2740926,33.3084873 40.8097622,30.8418415 37.767209,30.8418415 L37.767209,30.8418415 Z M8.85607009,22.5737551 L8.85607009,25.3297839 L6.10262829,25.3297839 L6.10262829,22.5737551 C6.10262829,22.2016912 6.25406758,21.8434075 6.50187735,21.5953649 C6.63954944,21.4713436 6.79098874,21.3611024 6.95619524,21.2922017 C7.46558198,21.0854995 8.07133917,21.2095208 8.45682103,21.5953649 C8.51188986,21.6504854 8.58072591,21.7331663 8.62202753,21.802067 C8.67709637,21.8847479 8.718398,21.9536486 8.74593242,22.0363295 C8.78723404,22.1190103 8.81476846,22.2154713 8.82853567,22.2981522 C8.84230288,22.3946132 8.85607009,22.4772941 8.85607009,22.5737551 L8.85607009,22.5737551 Z M23.5732165,12.8587535 L11.0725907,8.80739117 L23.5732165,4.88005011 L36.5969962,8.80739117 L23.5732165,12.8587535 Z M33.6370463,23.717507 C32.9211514,24.3100532 29.5481852,25.3297839 24,25.3297839 C18.4518148,25.3297839 15.0788486,24.3100532 14.3629537,23.717507 L14.3629537,12.7760727 L23.5594493,15.7525838 L33.6370463,12.6244911 L33.6370463,23.717507 Z M23.5594493,2 L2,8.77983088 L6.10262829,10.1027247 L6.10262829,19.8177263 L8.85607009,19.8177263 L8.85607009,10.9984341 L11.6095119,11.8941434 L11.6095119,23.9517695 C11.6095119,27.8928907 21.9349186,28.0858127 24,28.0858127 C26.0650814,28.0858127 36.3904881,27.8928907 36.3904881,23.9517695 L36.3904881,11.7701221 L46,8.77983088 L23.5594493,2 Z" id="path-1"></path>
    </defs>
    <g id="Admin-/-Filled-Opened-Components" stroke="none" stroke-width="1" fill="none" fill-rule="evenodd">
        <g id="1--Dashboard" transform="translate(-1006.000000, -289.000000)">
            <g id="widgets" transform="translate(220.000000, 128.000000)">
                <g id="student" transform="translate(787.000000, 162.000000)">
                    <g id="icon-/-student" transform="translate(12.000000, 12.000000)">
                        <g id="icon-/-academic-staff">
                            <rect id="icon-wrapper" x="0" y="0" width="48" height="48"></rect>
                            <mask id="mask-2" fill="white">
                                <use xlink:href="#path-1"></use>
                            </mask>
                            <use id="student" fill="#475059" xlink:href="#path-1"></use>
                            <g id="colors-/-free-green" mask="url(#mask-2)" fill="#0EC59B">
                                <g transform="translate(-40.000000, -38.000000)" id="colors-/-cerulean-blue">
                                    <rect x="0" y="0" width="128" height="128"></rect>
                                </g>
                            </g>
                        </g>
                    </g>
                    <rect id="Rectangle" stroke="#0EC59B" stroke-width="2" x="0" y="0" width="72" height="72" rx="36"></rect>
                </g>
            </g>
        </g>
    </g>
</svg>